<svg width="24" height="24" viewBox="0 0 24 24" fill="none" xmlns="http://www.w3.org/2000/svg">
<path d="M6.10001 15.6L11.7 5.99999C11.9 5.69999 12.3 5.69999 12.5 5.99999L14 7.99999C14.4 8.59999 14.5 9.39999 14.1 9.99999L10.8 15.3C10.5 15.8 9.90001 16.2 9.30001 16.2H6.40001C6.10001 16.3 5.90001 15.9 6.10001 15.6Z" stroke="white" stroke-width="1.5" stroke-miterlimit="10" stroke-linecap="round" stroke-linejoin="round"/>
<path d="M15.2 12.4L13.3 15.6C13.1 15.9 13.3 16.3 13.7 16.3H17.5C17.9 16.3 18.1 15.9 17.9 15.6L16 12.4C15.8 12.1 15.4 12.1 15.2 12.4Z" stroke="white" stroke-width="1.5" stroke-miterlimit="10" stroke-linecap="round" stroke-linejoin="round"/>
<path d="M12 22C17.5228 22 22 17.5228 22 12C22 6.47715 17.5228 2 12 2C6.47715 2 2 6.47715 2 12C2 17.5228 6.47715 22 12 22Z" stroke="white" stroke-width="1.5" stroke-miterlimit="10"/>
</svg>
