<svg width="24" height="24" viewBox="0 0 24 24" fill="none" xmlns="http://www.w3.org/2000/svg">
<path d="M12 2L6 8L8 10L12 6L16 10L18 8L12 2Z" stroke="white" stroke-width="1.5" stroke-miterlimit="10" stroke-linecap="round" stroke-linejoin="round"/>
<path d="M12 22L6 16L8 14L12 18L16 14L18 16L12 22Z" stroke="white" stroke-width="1.5" stroke-miterlimit="10" stroke-linecap="round" stroke-linejoin="round"/>
<path d="M19.7852 9.702L17.5225 11.9647L19.7852 14.2274L22.0479 11.9647L19.7852 9.702Z" stroke="white" stroke-width="1.5" stroke-miterlimit="10" stroke-linecap="round" stroke-linejoin="round"/>
<path d="M4.28523 9.70185L2.02251 11.9646L4.28523 14.2273L6.54795 11.9646L4.28523 9.70185Z" stroke="white" stroke-width="1.5" stroke-miterlimit="10" stroke-linecap="round" stroke-linejoin="round"/>
<path d="M11.9291 9.52515L9.45424 12L11.9291 14.4748L14.4039 12L11.9291 9.52515Z" stroke="white" stroke-width="1.5" stroke-miterlimit="10" stroke-linecap="round" stroke-linejoin="round"/>
</svg>
