<svg width="24" height="24" viewBox="0 0 24 24" fill="none" xmlns="http://www.w3.org/2000/svg">
<path d="M8.59009 15.56L15.2101 9.49002C15.4901 9.24002 15.4801 8.84004 15.1901 8.60004L13.1301 6.88004C12.5901 6.43004 12.1601 6.64003 12.1601 7.34003V16.67C12.1601 17.37 12.6001 17.57 13.1301 17.13L15.1901 15.41C15.4801 15.17 15.4901 14.77 15.2101 14.52L8.59009 8.45005" stroke="white" stroke-width="1.5" stroke-miterlimit="10" stroke-linecap="round" stroke-linejoin="round"/>
<path d="M12 22C17.5228 22 22 17.5228 22 12C22 6.47715 17.5228 2 12 2C6.47715 2 2 6.47715 2 12C2 17.5228 6.47715 22 12 22Z" stroke="white" stroke-width="1.5" stroke-miterlimit="10" stroke-linecap="round" stroke-linejoin="round"/>
</svg>
