<svg width="24" height="24" viewBox="0 0 24 24" fill="none" xmlns="http://www.w3.org/2000/svg">
<path d="M13.75 10C14.3023 10 14.75 9.55228 14.75 9C14.75 8.44772 14.3023 8 13.75 8C13.1977 8 12.75 8.44772 12.75 9C12.75 9.55228 13.1977 10 13.75 10Z" stroke="white" stroke-miterlimit="10"/>
<path d="M10.25 10C10.8023 10 11.25 9.55228 11.25 9C11.25 8.44772 10.8023 8 10.25 8C9.69772 8 9.25 8.44772 9.25 9C9.25 9.55228 9.69772 10 10.25 10Z" stroke="white" stroke-miterlimit="10"/>
<path d="M15.5 13C16.0523 13 16.5 12.5523 16.5 12C16.5 11.4477 16.0523 11 15.5 11C14.9477 11 14.5 11.4477 14.5 12C14.5 12.5523 14.9477 13 15.5 13Z" stroke="white" stroke-miterlimit="10"/>
<path d="M17.15 9.75C17.5642 9.75 17.9 9.41421 17.9 9C17.9 8.58579 17.5642 8.25 17.15 8.25C16.7358 8.25 16.4 8.58579 16.4 9C16.4 9.41421 16.7358 9.75 17.15 9.75Z" stroke="white" stroke-miterlimit="10"/>
<path d="M17.15 15.75C17.5642 15.75 17.9 15.4142 17.9 15C17.9 14.5858 17.5642 14.25 17.15 14.25C16.7358 14.25 16.4 14.5858 16.4 15C16.4 15.4142 16.7358 15.75 17.15 15.75Z" stroke="white" stroke-miterlimit="10"/>
<path d="M19.75 12.75C20.1642 12.75 20.5 12.4142 20.5 12C20.5 11.5858 20.1642 11.25 19.75 11.25C19.3358 11.25 19 11.5858 19 12C19 12.4142 19.3358 12.75 19.75 12.75Z" stroke="white" stroke-miterlimit="10"/>
<path d="M6.8 9.75C7.21421 9.75 7.55 9.41421 7.55 9C7.55 8.58579 7.21421 8.25 6.8 8.25C6.38579 8.25 6.05 8.58579 6.05 9C6.05 9.41421 6.38579 9.75 6.8 9.75Z" stroke="white" stroke-miterlimit="10"/>
<path d="M6.8 15.75C7.21421 15.75 7.55 15.4142 7.55 15C7.55 14.5858 7.21421 14.25 6.8 14.25C6.38579 14.25 6.05 14.5858 6.05 15C6.05 15.4142 6.38579 15.75 6.8 15.75Z" stroke="white" stroke-miterlimit="10"/>
<path d="M4.2 12.75C4.61421 12.75 4.95 12.4142 4.95 12C4.95 11.5858 4.61421 11.25 4.2 11.25C3.78579 11.25 3.45 11.5858 3.45 12C3.45 12.4142 3.78579 12.75 4.2 12.75Z" stroke="white" stroke-miterlimit="10"/>
<path d="M15.9 5.95001C16.3142 5.95001 16.65 5.61423 16.65 5.20001C16.65 4.7858 16.3142 4.45001 15.9 4.45001C15.4858 4.45001 15.15 4.7858 15.15 5.20001C15.15 5.61423 15.4858 5.95001 15.9 5.95001Z" stroke="white" stroke-miterlimit="10"/>
<path d="M8.1 5.95001C8.51421 5.95001 8.85 5.61423 8.85 5.20001C8.85 4.7858 8.51421 4.45001 8.1 4.45001C7.68579 4.45001 7.35 4.7858 7.35 5.20001C7.35 5.61423 7.68579 5.95001 8.1 5.95001Z" stroke="white" stroke-miterlimit="10"/>
<path d="M12.05 6.75C12.4642 6.75 12.8 6.41421 12.8 6C12.8 5.58579 12.4642 5.25 12.05 5.25C11.6358 5.25 11.3 5.58579 11.3 6C11.3 6.41421 11.6358 6.75 12.05 6.75Z" stroke="white" stroke-miterlimit="10"/>
<path d="M15.9 19.75C16.3142 19.75 16.65 19.4142 16.65 19C16.65 18.5858 16.3142 18.25 15.9 18.25C15.4858 18.25 15.15 18.5858 15.15 19C15.15 19.4142 15.4858 19.75 15.9 19.75Z" stroke="white" stroke-miterlimit="10"/>
<path d="M8.1 19.75C8.51421 19.75 8.85 19.4142 8.85 19C8.85 18.5858 8.51421 18.25 8.1 18.25C7.68579 18.25 7.35 18.5858 7.35 19C7.35 19.4142 7.68579 19.75 8.1 19.75Z" stroke="white" stroke-miterlimit="10"/>
<path d="M12.05 18.95C12.4642 18.95 12.8 18.6142 12.8 18.2C12.8 17.7858 12.4642 17.45 12.05 17.45C11.6358 17.45 11.3 17.7858 11.3 18.2C11.3 18.6142 11.6358 18.95 12.05 18.95Z" stroke="white" stroke-miterlimit="10"/>
<path d="M8.5 13C9.05228 13 9.5 12.5523 9.5 12C9.5 11.4477 9.05228 11 8.5 11C7.94772 11 7.5 11.4477 7.5 12C7.5 12.5523 7.94772 13 8.5 13Z" stroke="white" stroke-miterlimit="10"/>
<path d="M10.25 16C10.8023 16 11.25 15.5523 11.25 15C11.25 14.4477 10.8023 14 10.25 14C9.69772 14 9.25 14.4477 9.25 15C9.25 15.5523 9.69772 16 10.25 16Z" stroke="white" stroke-miterlimit="10"/>
<path d="M13.75 16C14.3023 16 14.75 15.5523 14.75 15C14.75 14.4477 14.3023 14 13.75 14C13.1977 14 12.75 14.4477 12.75 15C12.75 15.5523 13.1977 16 13.75 16Z" stroke="white" stroke-miterlimit="10"/>
<path d="M12 2.45001V2.45001" stroke="white" stroke-width="2" stroke-linecap="round" stroke-linejoin="round"/>
<path d="M17.5 2.84998V2.84998" stroke="white" stroke-width="1.5" stroke-linecap="round" stroke-linejoin="round"/>
<path d="M17.5 21.2V21.2" stroke="white" stroke-width="1.5" stroke-linecap="round" stroke-linejoin="round"/>
<path d="M20 16.5V16.5" stroke="white" stroke-width="1.5" stroke-linecap="round" stroke-linejoin="round"/>
<path d="M20 7V7" stroke="white" stroke-width="1.5" stroke-linecap="round" stroke-linejoin="round"/>
<path d="M4 16.5V16.5" stroke="white" stroke-width="1.5" stroke-linecap="round" stroke-linejoin="round"/>
<path d="M4 7V7" stroke="white" stroke-width="1.5" stroke-linecap="round" stroke-linejoin="round"/>
<path d="M6.5 2.84998V2.84998" stroke="white" stroke-width="1.5" stroke-linecap="round" stroke-linejoin="round"/>
<path d="M6.5 21.2V21.2" stroke="white" stroke-width="1.5" stroke-linecap="round" stroke-linejoin="round"/>
<path d="M12 21.5V21.5" stroke="white" stroke-width="2" stroke-linecap="round" stroke-linejoin="round"/>
<path d="M1.55 12V12" stroke="white" stroke-width="2" stroke-linecap="round" stroke-linejoin="round"/>
<path d="M22.5 12V12" stroke="white" stroke-width="2" stroke-linecap="round" stroke-linejoin="round"/>
</svg>
