<svg width="24" height="24" viewBox="0 0 24 24" fill="none" xmlns="http://www.w3.org/2000/svg">
<path d="M16.3 15.3C15.3 16.6 13.7 17.5 12 17.5C9 17.5 6.6 15.1 6.6 12.1C6.6 9.10001 9 6.60001 12 6.60001C13.2 6.60001 14.4 7.00001 15.3 7.70001" stroke="white" stroke-width="1.5" stroke-miterlimit="10" stroke-linecap="round" stroke-linejoin="round"/>
<path d="M17.4 11.4C18.0627 11.4 18.6 10.8627 18.6 10.2C18.6 9.53726 18.0627 9 17.4 9C16.7373 9 16.2 9.53726 16.2 10.2C16.2 10.8627 16.7373 11.4 17.4 11.4Z" stroke="white" stroke-width="1.5" stroke-miterlimit="10" stroke-linecap="round" stroke-linejoin="round"/>
<path d="M12 22C17.5228 22 22 17.5228 22 12C22 6.47715 17.5228 2 12 2C6.47715 2 2 6.47715 2 12C2 17.5228 6.47715 22 12 22Z" stroke="white" stroke-width="1.5" stroke-miterlimit="10" stroke-linecap="round" stroke-linejoin="round"/>
</svg>
