<svg width="24" height="24" viewBox="0 0 24 24" fill="none" xmlns="http://www.w3.org/2000/svg">
<path d="M12 18.1C11.3 18.1 10.7 17.5 10.7 16.8V7.19999C10.7 6.49999 11.3 5.89999 12 5.89999C12.7 5.89999 13.3 6.49999 13.3 7.19999V16.9C13.3 17.6 12.7 18.1 12 18.1Z" stroke="white" stroke-width="1.5" stroke-miterlimit="10"/>
<path d="M6.70001 8.90001C7.00001 8.30001 7.80001 8.10001 8.50001 8.40001L16.9 13.2C17.5 13.6 17.7 14.4 17.4 15C17 15.6 16.2 15.8 15.6 15.5L7.20001 10.7C6.50001 10.4 6.30001 9.60001 6.70001 8.90001Z" stroke="white" stroke-width="1.5" stroke-miterlimit="10"/>
<path d="M6.7 15.1C6.3 14.5 6.6 13.7 7.2 13.3L15.6 8.5C16.2 8.1 17 8.4 17.4 9C17.8 9.6 17.5 10.4 16.9 10.8L8.5 15.6C7.8 15.9 7 15.7 6.7 15.1Z" stroke="white" stroke-width="1.5" stroke-miterlimit="10"/>
<path d="M12 22C17.5228 22 22 17.5228 22 12C22 6.47715 17.5228 2 12 2C6.47715 2 2 6.47715 2 12C2 17.5228 6.47715 22 12 22Z" stroke="white" stroke-width="1.5" stroke-miterlimit="10"/>
</svg>
