<svg width="24" height="24" viewBox="0 0 24 24" fill="none" xmlns="http://www.w3.org/2000/svg">
<path d="M8.50001 5.10001L11.2 7.80001C11.6 8.20001 12.4 8.20001 12.8 7.80001L15.5 5.10001C16.2 4.40001 15.7 3.10001 14.7 3.10001H9.30001C8.30001 3.20001 7.80001 4.40001 8.50001 5.10001Z" stroke="white" stroke-width="1.5" stroke-miterlimit="10" stroke-linecap="round" stroke-linejoin="round"/>
<path d="M8.50001 18.9L11.2 16.2C11.6 15.8 12.4 15.8 12.8 16.2L15.5 18.9C16.2 19.6 15.7 20.9 14.7 20.9H9.30001C8.30001 20.8 7.80001 19.6 8.50001 18.9Z" stroke="white" stroke-width="1.5" stroke-miterlimit="10" stroke-linecap="round" stroke-linejoin="round"/>
<path d="M2.20001 11.5L4.40001 8C4.70001 7.4 5.50001 7.3 6.00001 7.8L9.50001 11.3C9.90001 11.7 9.90001 12.3 9.50001 12.7L6.00001 16.2C5.50001 16.7 4.80001 16.6 4.40001 16L2.20001 12.5C1.90001 12.2 1.90001 11.8 2.20001 11.5Z" stroke="white" stroke-width="1.5" stroke-miterlimit="10" stroke-linecap="round" stroke-linejoin="round"/>
<path d="M21.8 11.5L19.6 8.00001C19.3 7.50001 18.5 7.40001 18 7.80001L14.5 11.3C14.1 11.7 14.1 12.3 14.5 12.7L18 16.2C18.5 16.7 19.2 16.6 19.6 16L21.8 12.5C22.1 12.2 22.1 11.8 21.8 11.5Z" stroke="white" stroke-width="1.5" stroke-miterlimit="10" stroke-linecap="round" stroke-linejoin="round"/>
</svg>
