<svg width="24" height="24" viewBox="0 0 24 24" fill="none" xmlns="http://www.w3.org/2000/svg">
<path d="M10.8 3.39999L7.20001 7.69999C7.10001 7.89999 7.00001 8.19999 6.90001 8.39999L5.20001 17C5.10001 17.6 5.40001 18.3 5.90001 18.6L11.2 21.6C11.6 21.8 12.3 21.8 12.7 21.6L18 18.6C18.5 18.3 18.8 17.6 18.7 17L17 8.39999C17 8.19999 16.8 7.89999 16.7 7.69999L13.1 3.39999C12.5 2.59999 11.5 2.59999 10.8 3.39999Z" stroke="white" stroke-width="1.5" stroke-miterlimit="10" stroke-linecap="round" stroke-linejoin="round"/>
<path d="M16.8 8.5L12.5 20.7C12.3 21.1 11.7 21.1 11.6 20.7L7.2 8.5" stroke="white" stroke-width="1.5" stroke-miterlimit="10" stroke-linecap="round" stroke-linejoin="round"/>
</svg>
