<svg width="24" height="24" viewBox="0 0 24 24" fill="none" xmlns="http://www.w3.org/2000/svg">
<path d="M10.45 3.05L6.71001 7.71C5.86001 8.77 6.16001 10.13 7.37001 10.73L11.1 12.6C11.59 12.84 12.39 12.84 12.88 12.6L16.61 10.73C17.82 10.12 18.12 8.76 17.27 7.71L13.54 3.05C12.7 1.98 11.3 1.98 10.45 3.05Z" stroke="white" stroke-width="1.5" stroke-miterlimit="10" stroke-linecap="round" stroke-linejoin="round"/>
<path d="M12 2.29999V7.55999" stroke="white" stroke-width="1.5" stroke-miterlimit="10" stroke-linecap="round" stroke-linejoin="round"/>
<path d="M7.8 10.71L12 7.56L16.2 10.71" stroke="white" stroke-width="1.5" stroke-miterlimit="10" stroke-linecap="round" stroke-linejoin="round"/>
<path d="M8.77 14.43L10.38 15.15C11.41 15.61 12.59 15.61 13.63 15.15L15.24 14.43C16.68 13.79 18.01 15.53 17.01 16.75L13.55 20.98C12.7 22.02 11.31 22.02 10.45 20.98L7 16.75C5.99 15.53 7.32 13.79 8.77 14.43Z" stroke="white" stroke-width="1.5" stroke-miterlimit="10" stroke-linecap="round" stroke-linejoin="round"/>
</svg>
