<svg width="24" height="24" viewBox="0 0 24 24" fill="none" xmlns="http://www.w3.org/2000/svg">
<path d="M4.91992 20.28L6.68993 21.65C6.91993 21.88 7.42992 21.99 7.77992 21.99H9.94992C10.6399 21.99 11.3799 21.48 11.5499 20.79L12.9199 16.62C13.2099 15.82 12.6899 15.13 11.8299 15.13H9.53992C9.19992 15.13 8.90992 14.8399 8.96992 14.4399L9.25993 12.61C9.36993 12.1 9.02992 11.52 8.51992 11.35C8.05992 11.18 7.48993 11.41 7.25993 11.75L4.91992 15.24" stroke="white" stroke-width="1.5" stroke-miterlimit="10"/>
<path d="M2 20.28V14.6801C2 13.8801 2.34 13.59 3.14 13.59H3.71C4.51 13.59 4.85 13.8801 4.85 14.6801V20.28C4.85 21.08 4.51 21.37 3.71 21.37H3.14C2.34 21.37 2 21.09 2 20.28Z" stroke="white" stroke-width="1.5" stroke-linecap="round" stroke-linejoin="round"/>
<path d="M19.0801 3.71997L17.3101 2.34998C17.0801 2.11998 16.5701 2.01001 16.2201 2.01001H14.0501C13.3601 2.01001 12.6201 2.51996 12.4501 3.20996L11.0801 7.38C10.7901 8.18 11.3101 8.87 12.1701 8.87H14.4601C14.8001 8.87 15.0901 9.16006 15.0301 9.56006L14.7401 11.39C14.6301 11.9 14.9701 12.48 15.4801 12.65C15.9401 12.82 16.5101 12.59 16.7401 12.25L19.0801 8.76001" stroke="white" stroke-width="1.5" stroke-miterlimit="10"/>
<path d="M22.0001 3.71997V9.31995C22.0001 10.1199 21.6601 10.41 20.8601 10.41H20.2901C19.4901 10.41 19.1501 10.1199 19.1501 9.31995V3.71997C19.1501 2.91997 19.4901 2.63 20.2901 2.63H20.8601C21.6601 2.63 22.0001 2.90997 22.0001 3.71997Z" stroke="white" stroke-width="1.5" stroke-linecap="round" stroke-linejoin="round"/>
</svg>
