<svg width="24" height="24" viewBox="0 0 24 24" fill="none" xmlns="http://www.w3.org/2000/svg">
<path d="M7.60001 7.60001V3.90001C7.60001 3.10001 8.20001 2.40001 9.00001 2.20001C11 1.90001 13 1.90001 15 2.20001C15.8 2.30001 16.4 3.00001 16.4 3.90001V9.80001C16.4 11 15.4 12 14.2 12H9.80001C8.60001 12 7.60001 13 7.60001 14.2V20.1C7.60001 20.9 8.20001 21.6 9.00001 21.8C11 22.1 13 22.1 15 21.8C15.8 21.7 16.4 21 16.4 20.1V16.4" stroke="white" stroke-width="1.5" stroke-linecap="round" stroke-linejoin="round"/>
<path d="M16.4 7.60001H20.1C20.9 7.60001 21.6 8.20001 21.8 9.00001C22.1 11 22.1 13 21.8 15C21.7 15.8 21 16.4 20.1 16.4H12" stroke="white" stroke-width="1.5" stroke-linecap="round" stroke-linejoin="round"/>
<path d="M12 7.60001H3.90001C3.10001 7.60001 2.40001 8.20001 2.20001 9.00001C1.90001 11 1.90001 13 2.20001 15C2.30001 15.8 3.00001 16.4 3.90001 16.4H7.60001" stroke="white" stroke-width="1.5" stroke-linecap="round" stroke-linejoin="round"/>
<path d="M10 4.85001V4.85001" stroke="white" stroke-width="1.5" stroke-linecap="round" stroke-linejoin="round"/>
<path d="M14 19.15V19.15" stroke="white" stroke-width="1.5" stroke-linecap="round" stroke-linejoin="round"/>
</svg>
