<svg width="24" height="24" viewBox="0 0 24 24" fill="none" xmlns="http://www.w3.org/2000/svg">
<path d="M21 11.5C21 16.75 16.75 21 11.5 21C6.25 21 2 16.75 2 11.5C2 6.25 6.25 2 11.5 2" stroke="white" stroke-width="1.5" stroke-linecap="round" stroke-linejoin="round"/>
<path d="M22 22L20 20" stroke="white" stroke-width="1.5" stroke-linecap="round" stroke-linejoin="round"/>
<path d="M14.5 6.13002C14.15 5.03002 14.56 3.66002 15.72 3.29002C16.33 3.09002 17.08 3.26002 17.51 3.85002C17.91 3.24002 18.69 3.10002 19.29 3.29002C20.45 3.66002 20.86 5.03002 20.51 6.13002C19.96 7.88002 18.04 8.79002 17.51 8.79002C16.97 8.79002 15.07 7.90002 14.5 6.13002Z" stroke="white" stroke-width="1.5" stroke-linecap="round" stroke-linejoin="round"/>
</svg>
