<svg width="24" height="24" viewBox="0 0 24 24" fill="none" xmlns="http://www.w3.org/2000/svg">
<path d="M11.3 14C13.1778 14 14.7 12.4778 14.7 10.6C14.7 8.72224 13.1778 7.20001 11.3 7.20001C9.42223 7.20001 7.9 8.72224 7.9 10.6C7.9 12.4778 9.42223 14 11.3 14Z" stroke="white" stroke-width="1.5" stroke-miterlimit="10"/>
<path d="M15.1 14.8L12.1 17.8" stroke="white" stroke-width="1.5" stroke-miterlimit="10" stroke-linecap="round" stroke-linejoin="round"/>
<path d="M12 22C17.5228 22 22 17.5228 22 12C22 6.47715 17.5228 2 12 2C6.47715 2 2 6.47715 2 12C2 17.5228 6.47715 22 12 22Z" stroke="white" stroke-width="1.5" stroke-miterlimit="10" stroke-linecap="round" stroke-linejoin="round"/>
<path d="M16.5 7.3125V7.3125" stroke="white" stroke-width="2" stroke-linecap="round" stroke-linejoin="round"/>
</svg>
